# File created by Blade
# Date/Time:  Wed Jan 21 17:47:32 2015
# Frame Rate: 120.000 fps
#------------------------------------------------------
:FULLY-SPECIFIED
:DEGREES
1008
root 19.773601 28.824048 -17.796341 -137.198147 56.129215 -190.074516
Spine 50.203628 -2.470034 1.453019
Head -34.590996 -2.279298 25.849974
LeftShoulder 24.571088 -46.936111 -5.450591
LeftArm 35.954767 17.250724 -52.471076
LeftForeArm -7.757279 -0.000000 10.699366
LeftHand 4.243375 -0.000000 14.150651
LeftHandThumb1 -26.253704 0.000000 33.147579
RightShoulder 14.270009 19.728204 -14.117826
RightArm 47.830296 8.431291 15.156301
RightForeArm -14.730603 -0.000000 24.276836
RightHand -8.915190 0.000000 -9.322952
RightHandThumb1 -24.326973 -0.000000 -32.862282
LeftUpLeg -20.217267 26.556363 -0.807603
LeftLeg -4.619792 -0.000000 0.000000
LeftFoot -36.626661 10.621185 -24.459996
LeftToeBase 29.886501 -0.000000 -0.000000
RightUpLeg -107.990741 -9.129749 7.463893
RightLeg 60.203057 -0.000000 -0.000000
RightFoot -21.938670 -27.261768 11.523548
RightToeBase 23.626052 -0.000000 -0.000000
1009
root 19.837330 28.763620 -17.757675 -137.230070 56.073180 -190.470953
Spine 50.230463 -2.470544 1.197459
Head -34.787178 -1.954417 25.926928
LeftShoulder 25.441518 -47.359524 -5.827246
LeftArm 36.830825 17.662165 -51.916519
LeftForeArm -6.592901 -0.000000 10.233038
LeftHand 4.382081 -0.000000 14.130792
LeftHandThumb1 -26.253704 0.000000 33.147579
RightShoulder 14.307237 20.342190 -14.820730
RightArm 48.260996 7.251520 14.005038
RightForeArm -14.748330 -0.000000 23.649984
RightHand -9.188798 0.000000 -8.804916
RightHandThumb1 -24.326973 -0.000000 -32.862282
LeftUpLeg -20.469366 26.428314 -0.915293
LeftLeg -4.588245 -0.000000 0.000000
LeftFoot -36.718701 10.586103 -24.527685
LeftToeBase 30.199744 -0.000000 -0.000000
RightUpLeg -108.479596 -9.143893 7.391475
RightLeg 60.632283 -0.000000 -0.000000
RightFoot -22.557305 -27.453995 11.686746
RightToeBase 23.756319 -0.000000 -0.000000
1010
root 19.903714 28.707053 -17.709567 -137.195486 56.041181 -190.837970
Spine 50.207419 -2.477907 0.870725
Head -34.916725 -1.574956 26.002123
LeftShoulder 26.081102 -47.650328 -6.066034
LeftArm 37.848000 17.930520 -51.340583
LeftForeArm -5.806391 -0.000000 9.887291
LeftHand 4.290179 0.000000 13.687373
LeftHandThumb1 -26.253704 0.000000 33.147579
RightShoulder 14.393867 21.216203 -15.421689
RightArm 48.702081 5.869969 13.061697
RightForeArm -14.634024 -0.000000 22.976932
RightHand -9.330686 -0.000000 -8.589412
RightHandThumb1 -24.326973 -0.000000 -32.862282
LeftUpLeg -20.778457 26.276534 -1.003515
LeftLeg -4.515306 -0.000000 0.000000
LeftFoot -36.745801 10.528602 -24.681104
LeftToeBase 30.320971 -0.000000 -0.000000
RightUpLeg -109.046353 -9.126985 7.314600
RightLeg 61.127288 -0.000000 -0.000000
RightFoot -23.081352 -27.425601 12.105124
RightToeBase 24.338531 -0.000000 -0.000000
1011
root 19.966553 28.653071 -17.663027 -137.133917 56.024176 -191.146200
Spine 50.270621 -2.428326 0.615082
Head -35.242570 -1.218387 26.011205
LeftShoulder 26.879318 -48.170425 -6.438540
LeftArm 38.718489 18.343544 -50.870913
LeftForeArm -4.841366 -0.000000 9.434971
LeftHand 4.265839 -0.000000 13.946927
LeftHandThumb1 -26.253704 0.000000 33.147579
RightShoulder 14.244169 21.611802 -16.230462
RightArm 49.406521 5.126898 12.308826
RightForeArm -14.394802 -0.000000 22.251589
RightHand -9.631586 -0.000000 -8.290672
RightHandThumb1 -24.326973 -0.000000 -32.862282
LeftUpLeg -21.070420 26.111175 -1.057763
LeftLeg -4.419143 -0.000000 0.000000
LeftFoot -36.825127 10.573463 -24.662611
LeftToeBase 30.461455 -0.000000 -0.000000
RightUpLeg -109.590165 -9.087538 7.232525
RightLeg 61.604905 -0.000000 -0.000000
RightFoot -23.400019 -27.445277 12.203366
RightToeBase 24.362891 -0.000000 -0.000000
1012
root 20.028492 28.601083 -17.617453 -137.077907 56.018003 -191.467590
Spine 50.322124 -2.446690 0.329330
Head -35.506024 -0.918138 25.936926
LeftShoulder 27.443696 -48.542893 -6.699577
LeftArm 39.726582 18.530052 -50.468786
LeftForeArm -4.054200 0.000000 8.930327
LeftHand 4.207072 0.000000 14.127362
LeftHandThumb1 -26.253704 0.000000 33.147579
RightShoulder 14.155412 22.194459 -17.052329
RightArm 50.064704 4.232762 11.734814
RightForeArm -14.157392 -0.000000 21.526437
RightHand -9.849028 -0.000000 -8.477704
RightHandThumb1 -24.326973 -0.000000 -32.862282
LeftUpLeg -21.372724 25.937025 -1.127107
LeftLeg -4.308588 -0.000000 0.000000
LeftFoot -36.901358 10.540181 -24.798016
LeftToeBase 30.510831 -0.000000 -0.000000
RightUpLeg -110.143857 -9.047497 7.119715
RightLeg 62.073028 -0.000000 -0.000000
RightFoot -23.531881 -27.569706 11.905590
RightToeBase 24.366835 -0.000000 -0.000000
1013
root 20.092705 28.551591 -17.568428 -136.878393 56.036825 -191.627185
Spine 50.374605 -2.412895 0.127376
Head -35.817825 -0.701522 25.833814
LeftShoulder 28.112383 -48.978060 -7.146219
LeftArm 40.710177 18.902553 -49.956260
LeftForeArm -3.306141 -0.000000 8.226275
LeftHand 4.694449 -0.000000 14.531638
LeftHandThumb1 -26.253704 0.000000 33.147579
RightShoulder 14.049450 23.011463 -17.839340
RightArm 50.763528 3.247281 11.339026
RightForeArm -13.614645 -0.000000 20.719949
RightHand -10.156203 -0.000000 -8.302699
RightHandThumb1 -24.326973 -0.000000 -32.862282
LeftUpLeg -21.694934 25.885815 -1.162362
LeftLeg -4.204910 -0.000000 0.000000
LeftFoot -36.955566 10.549009 -24.885411
LeftToeBase 30.492132 -0.000000 -0.000000
RightUpLeg -110.671806 -8.918891 6.991644
RightLeg 62.531954 -0.000000 -0.000000
RightFoot -23.705765 -27.563426 11.955393
RightToeBase 24.065686 -0.000000 -0.000000
